HIERARCHY
ROOT Hips
{
	OFFSET 0.000000 0.000000 0.000000
	CHANNELS 6 Xposition Yposition Zposition Zrotation Yrotation Xrotation
	JOINT LHipJoint
	{
		OFFSET 0.000000 0.000000 0.000000
		CHANNELS 3 Zrotation Yrotation Xrotation
		JOINT LeftUpLeg
		{
			OFFSET 0.076937 -0.101296 0.047373
			CHANNELS 3 Zrotation Yrotation Xrotation
			JOINT LeftLeg
			{
				OFFSET 0.138181 -0.379650 0.000000
				CHANNELS 3 Zrotation Yrotation Xrotation
				JOINT LeftFoot
				{
					OFFSET 0.144621 -0.397343 0.000000
					CHANNELS 3 Zrotation Yrotation Xrotation
					JOINT LeftToeBase
					{
						OFFSET 0.008898 -0.024446 0.131094
						CHANNELS 3 Zrotation Yrotation Xrotation
						End Site
						{
							OFFSET 0.000000 0.000000 0.000000
						}
					}
				}
			}
		}
	}
	JOINT RHipJoint
	{
		OFFSET 0.000000 0.000000 0.000000
		CHANNELS 3 Zrotation Yrotation Xrotation
		JOINT RightUpLeg
		{
			OFFSET -0.073689 -0.101296 0.047373
			CHANNELS 3 Zrotation Yrotation Xrotation
			JOINT RightLeg
			{
				OFFSET -0.143511 -0.394292 0.000000
				CHANNELS 3 Zrotation Yrotation Xrotation
				JOINT RightFoot
				{
					OFFSET -0.144963 -0.398282 0.000000
					CHANNELS 3 Zrotation Yrotation Xrotation
					JOINT RightToeBase
					{
						OFFSET -0.009298 -0.025546 0.133386
						CHANNELS 3 Zrotation Yrotation Xrotation
						End Site
						{
							OFFSET 0.000000 0.000000 0.000000
						}
					}
				}
			}
		}
	}
	JOINT LowerBack
	{
		OFFSET 0.000000 0.000000 0.000000
		CHANNELS 3 Zrotation Yrotation Xrotation
		JOINT Spine
		{
			OFFSET 0.001596 0.114897 -0.010915
			CHANNELS 3 Zrotation Yrotation Xrotation
			JOINT Spine1
			{
				OFFSET 0.003201 0.115645 -0.002413
				CHANNELS 3 Zrotation Yrotation Xrotation
				JOINT Neck
				{
					OFFSET 0.000000 0.000000 0.000000
					CHANNELS 3 Zrotation Yrotation Xrotation
					JOINT Neck1
					{
						OFFSET -0.003058 0.098565 0.009709
						CHANNELS 3 Zrotation Yrotation Xrotation
						JOINT Head
						{
							OFFSET 0.005874 0.099418 -0.006997
							CHANNELS 3 Zrotation Yrotation Xrotation
							End Site
							{
								OFFSET 0.000000 0.000000 0.000000
							}
						}
					}
				}
				JOINT LeftShoulder
				{
					OFFSET 0.000000 0.000000 0.000000
					CHANNELS 3 Zrotation Yrotation Xrotation
					JOINT LeftArm
					{
						OFFSET 0.189788 0.067783 -0.017566
						CHANNELS 3 Zrotation Yrotation Xrotation
						JOINT LeftForeArm
						{
							OFFSET 0.281260 -0.000000 -0.000000
							CHANNELS 3 Zrotation Yrotation Xrotation
							JOINT LeftHand
							{
								OFFSET 0.196626 -0.000000 -0.000000
								CHANNELS 3 Zrotation Yrotation Xrotation
								JOINT LeftFingerBase
								{
									OFFSET 0.000000 0.000000 0.000000
									CHANNELS 3 Zrotation Yrotation Xrotation
									JOINT LeftHandIndex1
									{
										OFFSET 0.040372 -0.000000 -0.000000
										CHANNELS 3 Zrotation Yrotation Xrotation
										End Site
										{
											OFFSET 0.000000 0.000000 0.000000
										}
									}
								}
								JOINT LThumb
								{
									OFFSET 0.000000 0.000000 0.000000
									CHANNELS 3 Zrotation Yrotation Xrotation
									End Site
									{
										OFFSET 0.000000 0.000000 0.000000
									}
								}
							}
						}
					}
				}
				JOINT RightShoulder
				{
					OFFSET 0.000000 0.000000 0.000000
					CHANNELS 3 Zrotation Yrotation Xrotation
					JOINT RightArm
					{
						OFFSET -0.177042 0.077557 -0.022840
						CHANNELS 3 Zrotation Yrotation Xrotation
						JOINT RightForeArm
						{
							OFFSET -0.295874 -0.000000 -0.000000
							CHANNELS 3 Zrotation Yrotation Xrotation
							JOINT RightHand
							{
								OFFSET -0.194403 -0.000000 -0.000000
								CHANNELS 3 Zrotation Yrotation Xrotation
								JOINT RightFingerBase
								{
									OFFSET 0.000000 0.000000 0.000000
									CHANNELS 3 Zrotation Yrotation Xrotation
									JOINT RightHandIndex1
									{
										OFFSET -0.035138 -0.000000 -0.000000
										CHANNELS 3 Zrotation Yrotation Xrotation
										End Site
										{
											OFFSET 0.000000 0.000000 0.000000
										}
									}
								}
								JOINT RThumb
								{
									OFFSET 0.000000 0.000000 0.000000
									CHANNELS 3 Zrotation Yrotation Xrotation
									End Site
									{
										OFFSET 0.000000 0.000000 0.000000
									}
								}
							}
						}
					}
				}
			}
		}
	}
}
MOTION
Frames: 9
Frame Time: 0.033333
15.229530 0.971700 -12.500765 -0.003697 41.612528 0.867492 -2.414739 24.756193 0.993881 -22.965898 -9.738370 -16.831108 3.079381 0.958647 32.049024 31.599454 -8.803269 -2.512683 -4.236471 1.263296 -7.652437 -1.147806 -31.288167 -0.051223 23.763798 14.213769 -27.227601 -10.026475 -1.481279 42.492746 -33.016194 10.811935 -1.845577 4.865393 -3.652344 -10.371161 -0.506587 5.001953 5.969787 3.181055 3.882700 25.335279 -8.938605 -0.050330 -37.241061 -6.515409 17.219443 -12.475602 13.614546 13.146381 21.704454 1.221080 -0.233786 -2.866885 7.550906 23.851625 3.206808 -78.859393 -12.864677 63.688137 -2.534683 -80.828772 10.569254 5.278443 -19.067477 3.257694 -2.983219 11.637344 0.102848 0.006376 -0.008691 0.007851 -0.006163 0.000429 -0.001046 -7.800189 -45.688286 -4.601122 76.793344 -0.159517 57.034462 10.916364 73.461459 18.008829 -7.686119 18.551874 8.008617 2.323333 -12.130011 -0.215820 -0.024300 -0.050935 0.034824 -0.003543 -0.001873 0.011859 
15.230177 0.977234 -12.493657 -0.021217 41.550673 1.417491 -1.832519 24.018649 1.667888 -22.096675 -9.484914 -16.037098 2.482081 0.743666 30.048328 30.394242 -7.927663 -2.550282 -4.037496 1.164368 -7.310255 -1.488657 -30.633280 -0.036284 23.669489 13.221191 -26.163148 -8.975260 -1.245537 39.206665 -32.737627 10.116514 -2.596917 4.556588 -3.084443 -10.015032 -0.451217 5.170104 5.884612 3.434215 4.102004 24.321296 -8.752246 -0.233301 -36.149286 -6.386636 17.036752 -11.984226 13.314231 13.246106 20.663352 1.159503 0.012772 -3.640866 7.479100 22.896619 3.245358 -79.376686 -13.408781 62.977168 -0.011658 -81.923623 9.077926 5.256515 -19.368843 2.954003 -2.727396 11.542086 0.100056 0.005943 -0.009246 0.008595 -0.006431 0.001141 -0.002276 -7.810448 -44.525658 -4.090037 77.508904 -0.339709 56.381205 11.328145 75.008990 18.710210 -7.283378 18.768103 7.477146 2.113119 -12.059110 -0.208192 -0.023627 -0.051892 0.034709 -0.001670 -0.000233 0.010913 
15.230163 0.980913 -12.487052 -0.075710 41.456244 1.937629 -1.383582 23.337210 2.185600 -21.330980 -9.216713 -15.315758 2.038700 0.705636 28.279805 29.228827 -6.824471 -2.941224 -3.765305 0.919087 -6.972249 -1.833078 -29.903191 0.022485 23.423367 12.608771 -25.288125 -8.267617 -1.117059 36.615974 -32.247461 9.346878 -3.143321 4.301704 -2.661097 -9.851291 -0.268644 5.295002 6.038975 3.856545 4.295135 23.294689 -8.694741 -0.591217 -34.906604 -6.302595 16.763304 -11.626589 12.963306 13.296982 19.619368 1.103269 0.308120 -4.381965 7.180965 21.902074 3.494708 -79.267789 -13.925536 61.625944 3.363288 -83.282515 6.654195 5.571036 -19.552928 2.984836 -2.389537 11.426417 0.100942 0.004542 -0.009680 0.009437 -0.006590 0.001859 -0.002788 -7.789988 -43.325417 -3.573033 78.061364 -0.466017 55.831519 11.589083 76.551851 19.295373 -7.073331 19.430121 7.209519 2.112450 -11.892765 -0.211976 -0.022662 -0.052881 0.034802 0.000018 0.000609 0.010387 
15.229627 0.982819 -12.481007 -0.135171 41.396640 2.365793 -1.126854 22.772361 2.614215 -20.551916 -8.807500 -14.697811 1.660557 0.839924 26.701686 28.132592 -5.835215 -3.268599 -3.669739 0.713532 -6.801398 -2.117527 -29.309710 0.021847 23.169544 12.074742 -24.585543 -8.015579 -1.118962 34.645928 -31.479117 8.478428 -3.715991 4.178367 -2.488103 -9.792545 -0.063060 5.363393 6.601354 4.341681 4.372943 22.299299 -8.643008 -0.937779 -33.890357 -6.271362 16.606805 -11.366446 12.536437 13.502021 18.585913 1.050782 0.729112 -5.059564 6.891584 20.966642 3.488586 -79.036188 -14.564422 60.564020 6.125288 -84.224435 4.730661 6.242288 -19.818375 3.420129 -2.164131 11.278038 0.106424 0.002552 -0.010288 0.010345 -0.006397 0.002744 -0.003224 -7.728808 -42.136259 -2.978520 78.371890 -0.678802 55.050668 11.600005 77.987886 19.365838 -6.872547 19.960359 6.912104 2.143065 -11.762439 -0.212243 -0.021373 -0.054170 0.034844 0.001685 0.001357 0.010367 
15.228702 0.983423 -12.475459 -0.210285 41.368284 2.698662 -1.034792 22.366844 2.895232 -19.911128 -8.303766 -14.191978 1.394848 0.997393 25.316420 27.254254 -5.043912 -3.640174 -3.610514 0.563787 -6.670892 -2.272444 -28.818395 -0.038136 22.843634 11.514791 -24.006918 -7.962739 -1.202304 33.383433 -30.953103 7.856626 -4.210802 4.127499 -2.380381 -9.816751 0.150855 5.437254 7.291900 4.915159 4.505237 21.360805 -8.598738 -1.368238 -33.080363 -6.246006 16.266210 -11.210718 12.029879 13.497951 17.707402 0.968895 1.095956 -5.587969 6.644687 20.227077 3.487554 -78.854064 -15.017726 59.644065 8.258223 -84.800186 3.202610 6.868345 -20.043842 3.867789 -1.946293 11.145854 0.119806 0.000837 -0.010676 0.011340 -0.006157 0.003363 -0.003412 -7.687102 -41.137243 -2.484869 78.614483 -0.828945 54.330972 11.475216 78.969291 19.210709 -6.762942 20.328966 6.669360 2.123142 -11.698808 -0.206769 -0.020441 -0.054974 0.034821 0.002732 0.001824 0.010083 
15.227504 0.983307 -12.470381 -0.274481 41.334287 3.027965 -1.019392 21.989979 3.082131 -19.444511 -7.905905 -13.726946 1.192779 1.154235 24.069412 26.530078 -4.272723 -4.098390 -3.502084 0.425028 -6.556857 -2.388024 -28.344507 -0.154933 22.528676 10.971291 -23.464039 -7.959572 -1.310277 32.477064 -30.430833 7.367106 -4.616021 4.130484 -2.317315 -9.856858 0.302256 5.495835 7.877813 5.554566 4.644052 20.500309 -8.547481 -1.891974 -32.357878 -6.147966 15.512488 -11.068093 11.450004 13.072851 16.968128 0.829708 1.294324 -5.985588 6.332969 19.784094 3.519812 -78.665288 -15.294672 58.800388 10.145951 -85.136036 1.737208 7.415468 -20.045455 4.279166 -1.723114 11.080959 0.133950 -0.000466 -0.010951 0.012061 -0.005940 0.003731 -0.003485 -7.697745 -40.170105 -2.078914 78.913088 -0.841966 53.778076 11.101848 79.392964 18.944270 -6.680138 20.642821 6.481071 2.133078 -11.679702 -0.204563 -0.019776 -0.055435 0.034950 0.003480 0.002113 0.009728 
15.226120 0.982549 -12.465672 -0.433051 41.344153 3.207977 -1.220164 21.705369 3.152147 -18.921434 -7.328994 -13.424841 1.056577 1.393704 22.994318 26.064504 -3.759837 -4.297340 -3.545080 0.402247 -6.523011 -2.265358 -28.077205 -0.397151 22.164414 10.031024 -23.003185 -8.020833 -1.590833 32.173823 -30.161825 7.296437 -5.081781 4.288141 -2.490679 -9.989930 0.335978 5.619716 8.784550 6.344687 4.852857 19.599346 -8.518846 -2.454603 -31.855516 -6.120099 15.107696 -11.066874 10.891693 12.971365 16.425792 0.736459 1.642072 -6.229341 6.176196 19.368053 3.229805 -78.891535 -15.475121 58.605152 10.227699 -84.872060 1.675240 7.870502 -20.399767 4.480537 -1.541044 10.934086 0.153494 -0.001561 -0.011147 0.012888 -0.005946 0.003978 -0.003297 -7.803430 -39.489125 -1.561848 78.913214 -0.959755 53.143186 10.474226 80.014002 18.002229 -6.749959 20.394568 6.463781 2.220371 -11.753079 -0.204443 -0.019170 -0.056310 0.035253 0.003766 0.002131 0.009331 
15.224796 0.981814 -12.461362 -0.607159 41.358534 3.279132 -1.358647 21.434327 3.177164 -18.609273 -6.827613 -13.003187 0.917322 1.586823 21.893136 25.824347 -3.253278 -4.539456 -3.442824 0.358369 -6.350433 -2.207481 -27.877587 -0.561381 21.935600 9.086586 -22.432054 -7.997553 -1.802479 31.860257 -29.654966 7.269585 -5.542322 4.488320 -2.630470 -10.108393 0.395237 5.834432 9.509866 7.146462 5.164036 18.830897 -8.647436 -2.995637 -31.372410 -6.163852 15.023421 -11.072204 10.503354 13.137322 16.161659 0.704534 2.035816 -6.334971 6.002610 18.750415 3.085860 -79.213647 -15.613972 58.330572 10.925279 -84.681254 1.052824 8.195963 -20.522370 4.506804 -1.259963 10.828501 0.174051 -0.002540 -0.011272 0.013418 -0.005711 0.004307 -0.003210 -7.925769 -39.057169 -1.144640 78.863317 -1.114752 52.574449 9.978076 80.435755 17.533752 -6.811354 20.086132 6.488526 2.300341 -11.840169 -0.206878 -0.018694 -0.056897 0.035873 0.003827 0.001993 0.009254 
15.223624 0.981377 -12.457384 -0.714372 41.345616 3.452485 -1.467940 21.120380 3.187223 -18.503261 -6.519797 -12.546793 0.748555 1.720234 20.808841 25.635741 -2.713365 -4.621697 -3.278740 0.327740 -6.187230 -2.258341 -27.613844 -0.758854 21.863856 8.265823 -21.739921 -7.930629 -1.952674 31.448611 -29.075874 7.186045 -6.032545 4.624770 -2.692617 -10.162250 0.363997 6.034608 9.915601 7.885359 5.488890 18.101251 -8.800423 -3.518073 -30.819274 -6.129826 14.600046 -10.989708 10.046797 12.933384 15.835509 0.616517 2.272745 -6.487325 5.785453 18.211164 3.074469 -79.600541 -15.724997 57.974858 12.716595 -84.728547 -0.508518 8.491438 -20.336503 4.490696 -0.899612 10.792269 0.189899 -0.003370 -0.011433 0.013694 -0.005516 0.004587 -0.003264 -8.078701 -38.513232 -0.790674 78.954754 -1.257475 52.163754 9.491816 80.859342 17.474031 -6.872107 19.910122 6.567582 2.363229 -11.890788 -0.202355 -0.018316 -0.057280 0.036507 0.004182 0.001875 0.009324 
